<?xml version="1.0" encoding="UTF-8" standalone="no" ?>
<!DOCTYPE svg PUBLIC "-//W3C//DTD SVG 1.1//EN" "http://www.w3.org/Graphics/SVG/1.1/DTD/svg11.dtd">
<svg xmlns="http://www.w3.org/2000/svg" xmlns:xlink="http://www.w3.org/1999/xlink" version="1.1" width="1080" height="1080" viewBox="0 0 1080 1080" xml:space="preserve">
<desc>Created with Fabric.js 5.2.4</desc>
<defs>
</defs>
<rect x="0" y="0" width="100%" height="100%" fill="transparent"></rect>
<g transform="matrix(1 0 0 1 540 540)" id="5dd73a04-14a1-4ac3-8862-7750c306b1ff"  >
</g>
<g transform="matrix(1 0 0 1 540 540)" id="1d389dd8-7afd-4962-807c-dfdc2086918c"  >
<rect style="stroke: none; stroke-width: 1; stroke-dasharray: none; stroke-linecap: butt; stroke-dashoffset: 0; stroke-linejoin: miter; stroke-miterlimit: 4; fill: rgb(255,255,255); fill-rule: nonzero; opacity: 1; visibility: hidden;" vector-effect="non-scaling-stroke"  x="-540" y="-540" rx="0" ry="0" width="1080" height="1080" />
</g>
<g transform="matrix(1.33 0 0 1.33 533.76 535.38)"  >
<path style="stroke: none; stroke-width: 1; stroke-dasharray: none; stroke-linecap: butt; stroke-dashoffset: 0; stroke-linejoin: miter; stroke-miterlimit: 4; fill: rgb(0,0,0); fill-rule: nonzero; opacity: 1;" vector-effect="non-scaling-stroke"  transform=" translate(-349.44, -279.72)" d="M 391.44 283.92 C 397.6002 271.041 400.9595 257.041 400.9595 242.479 C 400.9595 190.959 358.9595 148.401 306.88149999999996 148.401 C 254.80349999999996 148.401 212.80349999999996 190.401 212.80349999999996 242.479 C 212.80349999999996 294.557 254.80349999999996 336.557 306.88149999999996 336.557 C 326.48349999999994 336.557 346.0805 330.39680000000004 361.7605 318.635 L 452.4795 409.354 C 453.6006 410.4751 455.28029999999995 411.0337 456.40139999999997 411.0337 C 457.5225 411.0337 459.20219999999995 410.47511000000003 460.32329999999996 409.354 L 484.40129999999994 385.276 C 486.6395999999999 383.03770000000003 486.6395999999999 379.6744 484.40129999999994 377.4362 z M 456.96 397.6 L 366.79999999999995 307.44000000000005 C 365.67889999999994 306.31890000000004 363.9992 305.76030000000003 362.87809999999996 305.76030000000003 C 361.75699999999995 305.76030000000003 360.6398 306.31889 359.51869999999997 306.88140000000004 C 344.3977 319.20140000000004 326.4797 325.36140000000006 307.4407 325.36140000000006 C 262.0817 325.36140000000006 224.56169999999997 288.40040000000005 224.56169999999997 242.48240000000004 C 224.56169999999997 196.56040000000004 261.5227 159.60340000000002 307.4407 159.60340000000002 C 353.3627 159.60340000000002 390.3197 196.56440000000003 390.3197 242.48240000000004 C 390.3197 256.48240000000004 386.9603 269.9234 380.24170000000004 282.24440000000004 C 379.1206 284.4827 379.68311000000006 287.28350000000006 381.36280000000005 288.96320000000003 L 473.19880000000006 381.9202 z" stroke-linecap="round" />
</g>
<g transform="matrix(1.33 0 0 1.33 477.98 485.92)"  >
<path style="stroke: none; stroke-width: 1; stroke-dasharray: none; stroke-linecap: butt; stroke-dashoffset: 0; stroke-linejoin: miter; stroke-miterlimit: 4; fill: rgb(0,0,0); fill-rule: nonzero; opacity: 1;" vector-effect="non-scaling-stroke"  transform=" translate(-307.44, -242.48)" d="M 307.44 170.24 C 267.678 170.24 235.202 202.72 235.202 242.478 C 235.202 282.24 267.682 314.716 307.44 314.716 C 347.202 314.716 379.678 282.236 379.678 242.478 C 379.678 202.72 347.198 170.24 307.44 170.24 z M 307.44 304.08000000000004 C 273.838 304.08000000000004 246.401 276.63900000000007 246.401 243.04100000000005 C 246.401 209.43900000000005 273.842 182.00200000000007 307.44 182.00200000000007 C 341.042 182.00200000000007 368.479 209.44300000000007 368.479 243.04100000000005 C 368.479 276.64300000000003 341.038 304.08000000000004 307.44 304.08000000000004 z" stroke-linecap="round" />
</g>
<g transform="matrix(1.33 0 0 1.33 533.79 535.01)"  >
<path style="stroke: none; stroke-width: 0; stroke-dasharray: none; stroke-linecap: butt; stroke-dashoffset: 0; stroke-linejoin: miter; stroke-miterlimit: 4; fill: rgb(0,0,0); fill-rule: nonzero; opacity: 1;" vector-effect="non-scaling-stroke"  transform=" translate(-350, -280)" d="M 478.8 78.398 L 221.2 78.398 C 180.88 78.398 148.399 110.87799999999999 148.399 151.199 L 148.399 408.79900000000004 C 148.399 449.119 180.879 481.6 221.2 481.6 L 478.8 481.6 C 519.12 481.6 551.601 449.12 551.601 408.79900000000004 L 551.601 151.199 C 551.601 110.87900000000002 519.121 78.39800000000001 478.8 78.39800000000001 z M 540.398 408.798 C 540.398 442.95799999999997 512.957 470.4 478.79600000000005 470.4 L 221.19600000000003 470.396094 C 187.03600000000003 470.396094 159.59400000000002 442.95509400000003 159.59400000000002 408.79409400000003 L 159.59790600000002 151.194094 C 159.59790600000002 117.03409400000001 187.03890600000003 89.592094 221.19990600000003 89.592094 L 478.7999060000001 89.592094 C 512.959906 89.592094 540.401906 117.033094 540.401906 151.194094 z" stroke-linecap="round" />
</g>
</svg>