<?xml version="1.0" encoding="utf-8"?>
<!-- Generator: Adobe Illustrator 24.1.1, SVG Export Plug-In . SVG Version: 6.00 Build 0)  -->
<svg version="1.1" id="Layer_1" xmlns="http://www.w3.org/2000/svg" xmlns:xlink="http://www.w3.org/1999/xlink" x="0px" y="0px"
	 viewBox="0 0 24 24" style="enable-background:new 0 0 24 24;" xml:space="preserve">
<style type="text/css">
	.st0{fill:#FFFFFF;}
</style>
<path class="st0" d="M16.4,18.8L16.4,18.8c0.6,0,1.3-0.5,1.3-1.3v-11c0-0.6-0.5-1.3-1.3-1.3l0,0c-0.6,0-1.3,0.5-1.3,1.3v11.1
	C15.2,18.3,15.7,18.8,16.4,18.8z M7.8,18.8L7.8,18.8c0.6,0,1.3-0.5,1.3-1.3v-11c0-0.6-0.5-1.3-1.3-1.3l0,0c-0.6,0-1.3,0.5-1.3,1.3
	v11.1C6.5,18.3,7,18.8,7.8,18.8z"/>
</svg>
