<?xml version="1.0" encoding="utf-8"?>
<!-- Generator: Adobe Illustrator 24.1.1, SVG Export Plug-In . SVG Version: 6.00 Build 0)  -->
<svg version="1.1" id="Layer_1" xmlns="http://www.w3.org/2000/svg" xmlns:xlink="http://www.w3.org/1999/xlink" x="0px" y="0px"
	 viewBox="0 0 24 24" style="enable-background:new 0 0 24 24;" xml:space="preserve">
<style type="text/css">
	.st0{fill:#FFFFFF;}
</style>
<circle class="st0" cx="3.1" cy="7.5" r="1.3"/>
<circle class="st0" cx="3.1" cy="11.8" r="1.3"/>
<circle class="st0" cx="3.1" cy="16.5" r="1.3"/>
<path class="st0" d="M21.1,8.6H7.6C7,8.6,6.5,8.1,6.5,7.5v0c0-0.6,0.5-1.1,1.1-1.1h13.4c0.6,0,1.1,0.5,1.1,1.1v0
	C22.2,8.1,21.7,8.6,21.1,8.6z"/>
<path class="st0" d="M21.1,13.2H7.6c-0.6,0-1.1-0.5-1.1-1.1v0c0-0.6,0.5-1.1,1.1-1.1h13.4c0.6,0,1.1,0.5,1.1,1.1v0
	C22.2,12.7,21.7,13.2,21.1,13.2z"/>
<path class="st0" d="M21.1,17.7H7.6c-0.6,0-1.1-0.5-1.1-1.1v0c0-0.6,0.5-1.1,1.1-1.1h13.4c0.6,0,1.1,0.5,1.1,1.1v0
	C22.2,17.2,21.7,17.7,21.1,17.7z"/>
</svg>
